<svg id="Capa_1" enable-background="new 0 0 512 512" height="512" viewBox="0 0 512 512" width="512" xmlns="http://www.w3.org/2000/svg"><g><path d="m482 22.5c0-12.426-11.074-22.5-23.5-22.5s-22.5 10.074-22.5 22.5v286c0 12.426 10.074 22.5 22.5 22.5s23.5-10.074 23.5-22.5v-97.5h30v-90h-30z"/><path d="m136 22.5v286c0 12.426 10.074 22.5 22.5 22.5s22.5-10.074 22.5-22.5v-286c0-12.426-10.074-22.5-22.5-22.5s-22.5 10.074-22.5 22.5z"/><path d="m256 308.5v-286c0-12.426-10.074-22.5-22.5-22.5s-22.5 10.074-22.5 22.5v286c0 12.426 10.074 22.5 22.5 22.5s22.5-10.074 22.5-22.5z"/><path d="m331 22.5c0-12.426-10.074-22.5-22.5-22.5s-22.5 10.074-22.5 22.5v286c0 12.426 10.074 22.5 22.5 22.5s22.5-10.074 22.5-22.5z"/><path d="m406 308.5v-286c0-12.426-10.074-22.5-22.5-22.5s-22.5 10.074-22.5 22.5v286c0 12.426 10.074 22.5 22.5 22.5s22.5-10.074 22.5-22.5z"/><path d="m0 121h30v90h-30z"/><path d="m106 22.5c0-12.426-10.074-22.5-22.5-22.5s-23.5 10.074-23.5 22.5l.027 308.5h45.973z"/><path d="m30 391h30.908l7.5 121h29.184l7.474-121h30.934v-30h-106z"/></g></svg>