<svg id="Capa_1" enable-background="new 0 0 512 512" height="512" viewBox="0 0 512 512" width="512" xmlns="http://www.w3.org/2000/svg"><g><path d="m421 166c0-8.276-6.738-15-15-15h-135v30h135c8.262 0 15-6.724 15-15z"/><path d="m421 406c0-8.276-6.738-15-15-15h-135v30h135c8.262 0 15-6.724 15-15z"/><path d="m421 286c0-8.276-6.738-15-15-15h-135v30h135c8.262 0 15-6.724 15-15z"/><path d="m271 61h180v30h-180v30h135c24.814 0 45 20.186 45 45s-20.186 45-45 45h-135v30h135c24.814 0 45 20.186 45 45s-20.186 45-45 45h-135v30h135c24.814 0 45 20.186 45 45s-20.186 45-45 45h-135v61h241v-512h-241z"/><path d="m241 0h-241v512h241zm-45 151h-60v90h60v30h-60v90h60v30h-60v60h-30v-60h-60v-30h60v-90h-60v-30h60v-90h-60v-30h60v-60h30v60h60z"/></g></svg>