<svg id="Capa_1" enable-background="new 0 0 512 512" height="512" viewBox="0 0 512 512" width="512" xmlns="http://www.w3.org/2000/svg"><g><path d="m211 0v240h30v-30h45c8.276 0 15 6.724 15 15v107h90v-197c0-57.891-47.109-105-105-105h-45v-30z"/><path d="m406 512c41.353 0 75-33.647 75-75v-437h-30v437c0 24.814-20.186 45-45 45s-45-20.186-45-45v-15h30v-60h-90v60h30v15c0 41.353 33.647 75 75 75z"/><path d="m151 30h30v30h-30z"/><path d="m151 105h30v30h-30z"/><path d="m31 105h30v30h-30z"/><path d="m91 60h30v30h-30z"/><path d="m91 150h30v30h-30z"/><path d="m31 30h30v30h-30z"/><path d="m31 180h30v30h-30z"/><path d="m151 180h30v30h-30z"/></g></svg>