<svg height="512pt" viewBox="0 0 512 512" width="512pt" xmlns="http://www.w3.org/2000/svg"><path d="m256 91c-15.613281 0-30.671875 2.324219-45 6.394531v97.535157l95.832031-95.832032c-16.027343-5.203125-33.089843-8.097656-50.832031-8.097656zm0 0"/><path d="m336.339844 112.011719-68.988282 68.988281h135.433594c-14.890625-29.019531-38.050781-53.078125-66.445312-68.988281zm0 0"/><path d="m99.097656 205.167969c-5.203125 16.027343-8.097656 33.089843-8.097656 50.832031 0 15.613281 2.324219 30.671875 6.394531 45h97.535157zm0 0"/><path d="m237.351562 211-26.351562 26.351562v37.296876l26.351562 26.351562h37.296876l26.351562-26.351562v-37.296876l-26.351562-26.351562zm0 0"/><path d="m412.902344 306.832031c5.203125-16.027343 8.097656-33.089843 8.097656-50.832031 0-15.613281-2.324219-30.671875-6.394531-45h-97.535157zm0 0"/><path d="m181 109.214844c-29.019531 14.890625-53.078125 38.050781-68.988281 66.441406l68.988281 68.992188zm0 0"/><path d="m109.214844 331c14.890625 29.019531 38.050781 53.078125 66.441406 68.988281l68.992188-68.988281zm0 0"/><path d="m331 402.785156c29.019531-14.890625 53.078125-38.050781 68.988281-66.441406l-68.988281-68.992188zm0 0"/><path d="m256 0c-140.609375 0-256 115.390625-256 256s115.390625 256 256 256 256-115.390625 256-256-115.390625-256-256-256zm0 451c-107.519531 0-195-87.480469-195-195s87.480469-195 195-195 195 87.480469 195 195-87.480469 195-195 195zm0 0"/><path d="m256 421c15.613281 0 30.671875-2.324219 45-6.394531v-97.535157l-95.832031 95.832032c16.027343 5.203125 33.089843 8.097656 50.832031 8.097656zm0 0"/></svg>