<svg id="Capa_1" enable-background="new 0 0 512 512" height="512" viewBox="0 0 512 512" width="512" xmlns="http://www.w3.org/2000/svg"><g><path d="m256 90c8.284 0 15-6.716 15-15v-15h30v-60h-90v60h30v15c0 8.284 6.716 15 15 15z"/><path d="m256 286c8.276 0 15-6.724 15-15 0-3.472 0-3.677-13.887-27.847l-1.084-1.89-1.494 2.607c-13.535 23.673-13.535 23.732-13.535 27.13 0 8.276 6.724 15 15 15z"/><path d="m421 30h-90v60h-32.563c-6.196 17.461-22.881 30-42.437 30s-36.24-12.539-42.437-30h-32.563v-60h-90v482h330zm-192.495 198.974 27.466-48.384 27.158 47.622c15.835 27.554 17.871 31.099 17.871 42.788 0 24.814-20.186 45-45 45s-45-20.186-45-45c0-11.44 1.318-13.74 17.505-42.026zm132.495 207.026h-210v-30h210zm0-60h-210v-30h210z"/></g></svg>