<svg id="Calque_1" data-name="Calque 1" xmlns="http://www.w3.org/2000/svg" viewBox="0 0 333.85 485.52"><defs><style>.cls-1{fill:none;stroke:#2f70b6;stroke-miterlimit:10;stroke-width:10px;}.cls-2{fill:#2f70b6;}</style></defs><g id="Layer_2" data-name="Layer 2"><g id="Calque_1-2" data-name="Calque 1"><path class="cls-1" d="M166.91,7C317,152.77,350.93,286.41,316.56,374.89c-24.37,62.75-74.36,105.59-143.8,105.59h4.84C103.23,480,40.7,438,17.25,374.89-16.18,285,14.36,155.2,164.48,9.46Z" transform="translate(0 0.04)"/><path class="cls-2" d="M163.65,294.12l3.28-19.4,3.43,19.35a10.74,10.74,0,0,0,8.71,8.7l19.35,3.44-19.19,3.92a10.74,10.74,0,0,0-8.38,8.38l-3.92,19.18-3.2-19.42a10.75,10.75,0,0,0-8.86-8.86l-19.43-3.2,19.4-3.28A10.75,10.75,0,0,0,163.65,294.12Z" transform="translate(0 0.04)"/></g></g></svg>