<svg id="Capa_1" enable-background="new 0 0 512 512" height="512" viewBox="0 0 512 512" width="512" xmlns="http://www.w3.org/2000/svg"><g><path d="m30 61h-30v210h30v-30h30v-150h-30z"/><path d="m482 91h-30v150h30v30h30v-210h-30z"/><path d="m315.626 334.691c-1.948 31.344-27.799 56.309-59.626 56.309s-57.678-24.965-59.626-56.309c-55.002 6.914-105.374 24.308-105.374 56.309 0 41.221 85.532 60 165 60s165-18.779 165-60c0-32.001-50.372-49.395-105.374-56.309z"/><path d="m286 331c0-7.251 0-7.69-15.908-35.361l-14.092-24.712-14.487 25.532c-15.513 27.1-15.513 27.231-15.513 34.541 0 16.538 13.462 30 30 30s30-13.462 30-30z"/><path d="m90 241h137.967l38.726-58.096-21.298-21.299 21.21-21.21 38.702 38.701-41.278 61.904h157.971v-150h-332z"/></g></svg>