<svg id="Capa_1" enable-background="new 0 0 512 512" height="512" viewBox="0 0 512 512" width="512" xmlns="http://www.w3.org/2000/svg"><g><path d="m196 482h-105v30h105c24.814 0 45-20.186 45-45v-15h30v15c0 24.814 20.186 45 45 45h105v-30h-105c-8.276 0-15-6.724-15-15v-15h60v-30h-210v30h60v15c0 8.276-6.724 15-15 15z"/><path d="m91 392h330v-121h-330zm240-76h30v30h-30zm-60 0h30v30h-30z"/><path d="m271 78.763v27.237h-30v-27.237c-17.422 6.213-30 22.707-30 42.237 0 24.814 20.186 45 45 45s45-20.186 45-45c0-19.53-12.578-36.024-30-42.237z"/><path d="m421 0h-330v241h330zm-165 196c-41.353 0-75-33.647-75-75s33.647-75 75-75 75 33.647 75 75-33.647 75-75 75z"/></g></svg>